<svg width="152" height="42" viewBox="0 0 152 42" fill="none" xmlns="http://www.w3.org/2000/svg">
<g id="uncx-horizontal-punched-for-dark-bg.svg" clip-path="url(#clip0_9_127)">
<g id="UNCX_LOGO_FULL">
<g id="network">
<path id="k" d="M139.252 33.3277L141.495 31.0146H142.661L140.044 33.6406L142.679 36.8153H141.495L139.425 34.2415L139.25 34.4161V36.8153H138.363V31.0169H139.25V33.3299L139.252 33.3277Z" fill="#F4F4F4"/>
<path id="r" d="M129.796 31.0146C130.502 31.0146 130.953 31.1008 131.327 31.3548C131.962 31.7811 132.014 32.4682 132.014 32.7199C132.014 33.5544 131.502 34.1644 130.728 34.3368L132.536 36.8153H131.465L129.805 34.4411H129.649V36.8153H128.762V31.0169H129.796V31.0146ZM129.649 33.6746H129.928C130.17 33.6746 131.161 33.6474 131.161 32.7267C131.161 31.9104 130.388 31.831 129.953 31.831H129.649V33.6746Z" fill="#F4F4F4"/>
<path id="o" d="M122.632 33.9196C122.632 35.6249 121.353 36.9288 119.616 36.9288C117.879 36.9288 116.598 35.6249 116.598 33.9196C116.598 32.2143 117.877 30.9104 119.616 30.9104C121.356 30.9104 122.632 32.2143 122.632 33.9196ZM121.746 33.9196C121.746 32.6316 120.859 31.729 119.616 31.729C118.374 31.729 117.487 32.6338 117.487 33.9196C117.487 35.2054 118.374 36.1102 119.616 36.1102C120.859 36.1102 121.746 35.2054 121.746 33.9196Z" fill="#F4F4F4"/>
<path id="w" d="M104.265 31.0145L105.795 34.8922L107.36 30.7356L108.872 34.8922L110.455 31.0145H111.412L108.82 37.1871L107.308 33.0736L105.777 37.1871L103.308 31.0145H104.265Z" fill="#F4F4F4"/>
<path id="t" d="M96.5137 31.8491V36.8131H95.627V31.8491H94.2959V31.0146H97.8425V31.8491H96.5114H96.5137Z" fill="#F4F4F4"/>
<path id="e" d="M88.6289 31.8491H86.3159V33.3186H88.5586V34.1531H86.3159V35.9786H88.6289V36.8131H85.4292V31.0146H88.6289V31.8491Z" fill="#F4F4F4"/>
<path id="n" d="M73.896 36.813V30.6223L78.1048 35.0306V31.0146H78.9914V37.1713L74.7827 32.763V36.8153H73.896V36.813Z" fill="#F4F4F4"/>
</g>
<g id="uncx">
<path id="x" d="M139.694 13.921L133.653 4.78687H139.053L142.264 10.3313L145.475 4.78687H150.874L144.833 13.921L151.983 24.2525H146.584L142.264 17.5107L137.944 24.2525H132.544L139.694 13.921Z" fill="url(#paint0_linear_9_127)"/>
<path id="c" d="M128.166 23.6402C126.445 24.5155 125.043 24.6901 123.875 24.6901C120.286 24.6901 117.864 23.4656 116.229 21.8601C114.478 20.1684 113.192 17.5991 113.192 14.4766C113.192 11.354 114.476 8.8437 116.229 7.14975C117.95 5.48529 120.46 4.34692 123.497 4.34692C124.78 4.34692 126.27 4.60997 128.166 5.42633V10.6215C127.173 9.57162 125.685 8.5489 123.612 8.5489C121.977 8.5489 120.664 9.075 119.644 10.066C118.564 11.1159 117.805 12.6919 117.805 14.5605C117.805 16.5742 118.621 18.0051 119.499 18.8509C119.907 19.2591 121.308 20.4859 123.701 20.4859C124.869 20.4859 126.445 20.1639 128.166 18.4722V23.6379V23.6402Z" fill="url(#paint1_linear_9_127)"/>
<path id="n-2" d="M88.4429 24.2547V4.78687H92.3546L102.92 17.3361V4.78687H107.414V24.2547H103.502L92.9374 11.6465V24.2547H88.4429Z" fill="url(#paint2_linear_9_127)"/>
<path id="u" d="M81.6877 16.3157C81.6877 18.1842 81.4541 20.4904 79.5289 22.4746C77.6603 24.3999 75.5015 24.6924 73.4583 24.6924C71.4152 24.6924 69.2564 24.3999 67.3878 22.4746C65.4626 20.4904 65.229 18.1842 65.229 16.3157V4.78687H69.7235V16.1977C69.7235 17.0436 69.7825 18.4745 70.744 19.4654C71.5308 20.3113 72.6125 20.4859 73.4583 20.4859C74.3042 20.4859 75.3836 20.3113 76.1727 19.4654C77.1365 18.4722 77.1932 17.0436 77.1932 16.1977V4.78687H81.6877V16.3157Z" fill="url(#paint3_linear_9_127)"/>
</g>
<g id="logo">
<path id="triangle" d="M47.4231 0.949951H6.78437C1.19005 0.949951 -1.98014 7.3629 1.41908 11.8052L21.7396 38.3868C24.0413 41.3982 28.2455 41.845 31.1141 39.7247C31.613 39.3596 32.0711 38.9129 32.4724 38.3868L41.7767 26.2162C41.2868 24.6924 40.67 23.3182 40.5521 23.1027C38.6881 19.7398 35.6608 17.9529 34.1301 17.2159C33.8308 17.073 33.5201 17.3837 33.6562 17.6785C34.6766 19.9257 34.1845 22.2365 33.663 22.9826C33.6562 23.0007 33.6426 23.012 33.6358 23.0279C32.3681 24.6697 30.1141 25.291 30.0234 25.316H30.0211C25.0005 26.985 21.7215 27.5768 20.0661 27.7469C18.8892 27.8671 17.6918 27.6653 16.6283 27.1165C14.7439 26.1369 14.1361 24.6017 15.2677 22.7943C15.2677 22.7921 22.5968 11.2406 22.5968 11.2383C22.5401 11.193 15.3561 6.02725 11.8186 3.48066C11.5351 3.27657 11.7755 2.83211 12.1043 2.96137L25.2023 8.09082C26.3248 6.88669 27.6355 6.08847 29.0687 5.62587L30.4361 3.14051C30.5585 2.91375 30.8806 2.91375 31.0007 3.14051L32.0756 5.09297L36.1325 2.09512C36.3343 1.94545 36.6223 2.07471 36.6449 2.32642L36.9465 5.85264C39.5408 4.50111 42.3957 5.58278 44.0988 6.51706C44.9877 7.00461 43.6634 8.29264 43.389 8.92305C46.0331 8.50127 48.3552 9.35618 49.8972 10.5081C50.5434 10.9889 49.4278 12.2044 49.1126 12.837C50.1784 12.4674 51.2011 12.1431 52.1127 12.6987L52.793 11.8075C56.1899 7.3629 53.022 0.952219 47.4277 0.952219L47.4231 0.949951Z" fill="url(#paint4_linear_9_127)"/>
<path id="eye" d="M23.6899 17.8259L27.4543 14.4517C27.4543 14.4517 28.6289 16.0572 27.1345 17.4472C27.1345 17.4472 25.6401 18.7716 23.6922 17.8282L23.6899 17.8259Z" fill="url(#paint5_linear_9_127)"/>
<path id="neck" d="M41.7746 26.2186L32.4704 38.3891C32.069 38.9152 31.6109 39.3619 31.1121 39.727C32.1144 35.2416 32.1484 28.933 30.019 25.3183H30.0213C30.1143 25.2911 32.3683 24.672 33.6337 23.0302C33.6382 23.0144 33.6518 23.003 33.6609 22.9849C34.1802 22.2388 34.6723 19.9281 33.6541 17.6808C33.518 17.386 33.8264 17.0754 34.128 17.2182C35.661 17.953 38.6883 19.7421 40.5501 23.1051C40.668 23.3205 41.2848 24.6947 41.7746 26.2186Z" fill="url(#paint6_linear_9_127)"/>
</g>
<g id="TM">
<path id="M" d="M148.057 33.0737L148.47 30.9602L149.155 32.4863L149.844 30.9602L150.216 33.0737H149.91L149.71 31.8877L149.139 33.1644L148.572 31.8854L148.366 33.0737H148.06H148.057Z" fill="#F4F4F4"/>
<path id="T" d="M147.4 31.3911V33.0737H147.098V31.3911H146.647V31.1077H147.849V31.3911H147.398H147.4Z" fill="#F4F4F4"/>
</g>
</g>
</g>
<defs>
<linearGradient id="paint0_linear_9_127" x1="142.264" y1="24.2547" x2="142.264" y2="4.78687" gradientUnits="userSpaceOnUse">
<stop stop-color="#00C68D"/>
<stop offset="1" stop-color="#00F847"/>
</linearGradient>
<linearGradient id="paint1_linear_9_127" x1="120.68" y1="24.6924" x2="120.68" y2="4.34919" gradientUnits="userSpaceOnUse">
<stop stop-color="#00C68D"/>
<stop offset="1" stop-color="#00F847"/>
</linearGradient>
<linearGradient id="paint2_linear_9_127" x1="97.9285" y1="0.949981" x2="97.9285" y2="0.949981" gradientUnits="userSpaceOnUse">
<stop stop-color="#00C68D"/>
<stop offset="1" stop-color="#00F847"/>
</linearGradient>
<linearGradient id="paint3_linear_9_127" x1="73.4561" y1="24.6924" x2="73.4561" y2="0.949981" gradientUnits="userSpaceOnUse">
<stop stop-color="#00C68D"/>
<stop offset="1" stop-color="#00F847"/>
</linearGradient>
<linearGradient id="paint4_linear_9_127" x1="54.1921" y1="20.9961" x2="0.0176685" y2="20.9961" gradientUnits="userSpaceOnUse">
<stop stop-color="#00C68D"/>
<stop offset="1" stop-color="#00F847"/>
</linearGradient>
<linearGradient id="paint5_linear_9_127" x1="26.2615" y1="14.2408" x2="25.5494" y2="18.2885" gradientUnits="userSpaceOnUse">
<stop stop-color="#00C68D"/>
<stop offset="1" stop-color="#00F847"/>
</linearGradient>
<linearGradient id="paint6_linear_9_127" x1="27.6539" y1="30.2233" x2="41.4277" y2="25.2095" gradientUnits="userSpaceOnUse">
<stop stop-color="#00F847"/>
<stop offset="1" stop-color="white"/>
</linearGradient>
<clipPath id="clip0_9_127">
<rect width="151.965" height="40.09" fill="white" transform="translate(0.0175781 0.949951)"/>
</clipPath>
</defs>
</svg>
