<svg width="141" height="56" viewBox="0 0 141 56" fill="none" xmlns="http://www.w3.org/2000/svg">
<g id="Relume / Black">
<path id="Vector" d="M50.1152 37.0475H54.2738V29.9184H56.0819L60.4989 37.0475H64.9416L60.0598 29.1952C62.2295 28.5495 63.8568 27.0771 63.8568 24.2875V24.1842C63.8568 20.3614 61.093 18.5791 56.7277 18.5791H50.1152V37.0475ZM54.2738 27.0771V21.782H56.6244C58.6391 21.782 59.7757 22.4278 59.7757 24.3133V24.4167C59.7757 26.199 58.7167 27.0771 56.6244 27.0771H54.2738Z" fill="white"/>
<path id="Vector_2" d="M72.079 37.3316C75.7726 37.3316 78.0973 35.7044 78.5364 32.7855H74.9977C74.7652 33.9221 73.9129 34.6712 72.1823 34.6712C70.1417 34.6712 68.9277 33.3797 68.8244 31.1325H78.5623V30.0993C78.5623 25.269 75.4627 23.2285 71.9756 23.2285C68.0495 23.2285 65.0273 25.9923 65.0273 30.2542V30.4608C65.0273 34.7745 67.9978 37.3316 72.079 37.3316ZM68.876 28.8336C69.1601 26.9222 70.2967 25.8115 71.9756 25.8115C73.7579 25.8115 74.7911 26.793 74.9203 28.8336H68.876Z" fill="white"/>
<path id="Vector_3" d="M80.3418 37.0475H84.0613V17.4167H80.3418V37.0475Z" fill="white"/>
<path id="Vector_4" d="M91.1972 37.3317C93.4188 37.3317 94.7873 36.2985 95.4847 34.9296V37.0476H99.2043V23.5386H95.4847V31.4683C95.4847 33.4573 94.2448 34.4388 92.6698 34.4388C91.0686 34.4388 90.3187 33.5606 90.3187 31.7266V23.5386H86.5996V32.2432C86.5996 35.7819 88.5626 37.3317 91.1972 37.3317Z" fill="white"/>
<path id="Vector_5" d="M101.744 37.0475H105.49V29.0661C105.49 27.2322 106.652 26.3022 108.098 26.3022C109.416 26.3022 110.217 27.0771 110.217 28.8078V37.0475H113.936V29.0661C113.936 27.2322 115.098 26.3022 116.545 26.3022C117.888 26.3022 118.663 27.0771 118.663 28.8078V37.0475H122.383V28.3945C122.383 24.8041 120.446 23.2285 117.94 23.2285C116.235 23.2285 114.479 23.9517 113.394 25.579C112.748 23.9776 111.405 23.2285 109.623 23.2285C107.608 23.2285 106.161 24.3392 105.49 25.6048V23.5384H101.744V37.0475Z" fill="white"/>
<path id="Vector_6" d="M131.032 37.3316C134.726 37.3316 137.051 35.7044 137.49 32.7855H133.951C133.718 33.9221 132.866 34.6712 131.135 34.6712C129.095 34.6712 127.881 33.3797 127.778 31.1325H137.516V30.0993C137.516 25.269 134.416 23.2285 130.929 23.2285C127.003 23.2285 123.98 25.9923 123.98 30.2542V30.4608C123.98 34.7745 126.951 37.3316 131.032 37.3316ZM127.83 28.8336C128.114 26.9222 129.251 25.8115 130.929 25.8115C132.711 25.8115 133.745 26.793 133.874 28.8336H127.83Z" fill="white"/>
<path id="Vector_7" fill-rule="evenodd" clip-rule="evenodd" d="M35.803 19.684L35.5519 19.2356C35.228 18.6932 34.7712 18.2425 34.2246 17.9261L22.1885 10.9843C21.6435 10.6682 21.0249 10.5011 20.3948 10.5H19.8746C19.2445 10.5011 18.6259 10.6682 18.0808 10.9843L6.04487 17.9441C5.50132 18.2584 5.0498 18.7099 4.73544 19.2535L4.48431 19.7019C4.16816 20.2469 4.00112 20.8656 4 21.4956V35.3972C4.00112 36.0273 4.16816 36.6459 4.48431 37.1909L4.73544 37.6393C5.05793 38.1766 5.50762 38.6263 6.04487 38.9488L18.0988 45.8905C18.6411 46.2132 19.2616 46.3808 19.8925 46.3748H20.3948C21.0249 46.3737 21.6435 46.2066 22.1885 45.8905L34.2246 38.9309C34.7735 38.6236 35.2267 38.1704 35.5339 37.6214L35.803 37.173C36.1154 36.6264 36.2822 36.0087 36.2873 35.3792V21.4777C36.2863 20.8477 36.1192 20.229 35.803 19.684ZM19.8746 14.0874H20.3948L30.9062 20.1503L20.1437 26.3566L9.38125 20.1503L19.8746 14.0874ZM21.9374 41.8906L32.4308 35.8277L32.6998 35.3793V23.2536L21.9374 29.4779V41.8906Z" fill="white"/>
</g>
</svg>
