<svg width="121" height="48" viewBox="0 0 121 48" fill="none" xmlns="http://www.w3.org/2000/svg">
<g id="Webflow / Black">
<path id="Vector" d="M40.3036 20.9536C40.3036 18.9064 38.3185 16.7347 34.8769 16.7347C31.0105 16.7347 26.7697 19.5652 26.1133 25.2212C25.4508 30.9395 29.011 33.4663 32.5881 33.4663C36.164 33.4663 38.0465 32.0729 39.9583 30.2051C38.3076 28.1261 36.1786 29.0936 35.776 29.2962C35.3307 29.5194 34.7463 29.8281 33.5592 29.8281C32.1733 29.8281 30.7677 29.201 30.7677 26.6279C39.6276 25.7788 40.3036 23.002 40.3036 20.9536ZM35.9127 21.2964C35.8553 21.9272 35.5966 23.0191 31.1131 23.6194C32.0586 20.2618 33.8618 20.0129 34.695 20.0129C35.4759 20.0129 35.9736 20.618 35.9127 21.2964ZM20.9062 21.8417C20.9062 21.8417 19.0006 27.8175 18.8529 28.3189C18.8017 27.8175 17.4072 17.0837 17.4072 17.0837C14.1618 17.0837 12.4257 19.3895 11.5107 21.8393C11.5107 21.8393 9.19265 27.8321 9.00478 28.3336C8.99382 27.8638 8.64853 21.9016 8.64853 21.9016C8.4521 18.9051 5.7168 17.0909 3.5 17.0909L6.16578 33.3528C9.57088 33.3418 11.3936 31.0396 12.355 28.5947C12.355 28.5947 14.3937 23.307 14.4779 23.0667C14.4986 23.2961 15.9444 33.3528 15.9444 33.3528C19.3519 33.3528 21.1905 31.197 22.18 28.8399L26.9613 17.0909C23.594 17.0909 21.8212 19.3907 20.9062 21.8417ZM52.8186 16.7127C50.7239 16.7127 49.1097 17.851 47.7507 19.5334L47.7531 19.5212L48.961 9.75C46.1719 9.75 43.8929 12.1779 43.4598 15.7794L41.3382 33.2259C42.9474 33.2259 44.6518 32.7586 45.5716 31.5764C46.3952 32.6341 47.6189 33.4772 49.4306 33.4772C54.1339 33.4772 57.367 28.0103 57.367 22.8776C57.367 18.1939 55.0879 16.7127 52.8186 16.7127ZM52.3868 25.0944C51.8988 27.9639 50.3042 29.8988 48.7596 29.8988C47.2029 29.8988 46.5453 29.2108 46.5453 29.2108C46.8356 26.7024 47.0284 25.1639 47.5957 23.839C48.1618 22.514 49.5002 20.3997 50.9007 20.3997C52.2623 20.3997 52.8748 22.2261 52.3868 25.0944ZM69.1574 17.0922H65.8645L65.8803 16.9201C66.1048 14.7704 66.6197 13.6419 68.2863 13.4687C69.4245 13.3516 69.9394 12.7598 70.059 12.1205C70.1529 11.6191 70.4713 9.84637 70.4713 9.84637C63.8661 9.80857 61.7957 12.6598 61.2674 16.9934L61.2552 17.0909L61.1905 17.0934C60.1181 17.0934 58.9408 18.3074 58.7346 19.8494L58.6627 20.4167H60.8587L59.0152 35.6782L58.4565 38.4208L58.6833 38.4281C61.7664 38.311 63.7502 35.8795 64.1882 32.3389L65.6278 20.4167H66.66C67.6702 20.4167 68.8572 19.4042 69.0769 17.7119L69.1574 17.0922ZM86.2453 16.8092C82.451 16.8092 78.875 19.6018 77.7755 23.9951C76.6775 28.3873 78.347 33.5736 83.9232 33.5736C89.5018 33.5736 92.7065 28.1676 92.7065 23.6792C92.7065 19.1882 89.6712 16.8092 86.2453 16.8092ZM87.7835 24.9638C87.587 26.9561 86.7088 29.966 84.308 29.966C81.8968 29.966 82.2395 26.434 82.4727 24.7577C82.7233 22.9605 83.7327 20.4167 85.8815 20.4167C87.8225 20.4167 88.0055 22.714 87.7835 24.9638ZM111.444 21.8417C111.444 21.8417 109.538 27.8175 109.392 28.3189C109.339 27.8175 107.945 17.0837 107.945 17.0837C104.7 17.0837 102.964 19.3895 102.048 21.8393C102.048 21.8393 99.7318 27.8321 99.5435 28.3336C99.5322 27.8638 99.1872 21.9016 99.1872 21.9016C98.9907 18.9051 96.254 17.0909 94.0385 17.0909L96.7032 33.3528C100.108 33.3418 101.932 31.0396 102.894 28.5947C102.894 28.5947 104.932 23.307 105.016 23.0667C105.037 23.2961 106.482 33.3528 106.482 33.3528C109.89 33.3528 111.728 31.197 112.717 28.8399L117.5 17.0909C114.132 17.0909 112.359 19.3907 111.444 21.8417ZM72.2563 9.84637L69.4917 32.1437L69.4843 32.1401L68.9231 34.8974L69.1488 34.9046C72.1257 34.868 74.2376 32.256 74.6353 28.9618L76.232 16.1637C76.7165 12.2657 74.3926 9.84637 72.2563 9.84637Z" fill="white"/>
</g>
</svg>
