<svg width="40" height="48" viewBox="0 0 40 48" fill="none" xmlns="http://www.w3.org/2000/svg">
<path d="M38.957 11.016L20.818 0.224859C20.3139 -0.0749531 19.6861 -0.0749531 19.182 0.224859L1.04296 11.016C0.558174 11.3044 0.260986 11.827 0.260986 12.3911V18.5511C0.260986 31.5255 7.75724 43.3757 19.4223 47.892C19.7936 48.0359 20.2059 48.036 20.5776 47.892C32.2144 43.387 39.7388 31.5625 39.7388 18.5511V12.3911C39.7389 11.8269 39.4418 11.3044 38.957 11.016ZM27.9047 20.4046L17.8767 30.4327C17.2519 31.0575 16.2388 31.0575 15.614 30.4327L12.0946 26.9134C11.4697 26.2887 11.4697 25.2755 12.0946 24.6507C12.7194 24.0259 13.7326 24.0259 14.3573 24.6507L16.7452 27.0386L25.6419 18.1419C26.2667 17.5171 27.2798 17.5171 27.9047 18.1419C28.5296 18.7668 28.5296 19.7799 27.9047 20.4046Z" fill="#FFCD1D"/>
</svg>
