<svg width="121" height="155" viewBox="0 0 121 155" fill="none" xmlns="http://www.w3.org/2000/svg">
<path id="Vector" d="M60.6172 117.617C56.3984 117.617 52.8242 116.152 49.8945 113.223C46.9648 110.293 45.5 106.719 45.5 102.5C45.5 98.2812 46.9648 94.707 49.8945 91.7773C52.8242 88.8477 56.3984 87.3828 60.6172 87.3828C64.8359 87.3828 68.4102 88.8477 71.3398 91.7773C74.2695 94.707 75.7344 98.2812 75.7344 102.5C75.7344 106.719 74.2695 110.293 71.3398 113.223C68.4102 116.152 64.8359 117.617 60.6172 117.617ZM105.617 140.117V64.8828H15.6172V140.117H105.617ZM105.617 50.1172C109.836 50.1172 113.41 51.582 116.34 54.5117C119.27 57.4414 120.734 60.8984 120.734 64.8828V140.117C120.734 144.102 119.27 147.559 116.34 150.488C113.41 153.418 109.836 154.883 105.617 154.883H15.6172C11.3984 154.883 7.82422 153.418 4.89453 150.488C1.96484 147.559 0.5 144.102 0.5 140.117V64.8828C0.5 60.8984 1.96484 57.4414 4.89453 54.5117C7.82422 51.582 11.3984 50.1172 15.6172 50.1172H23V35C23 28.2031 24.6992 21.9336 28.0977 16.1914C31.4961 10.4492 36.0664 5.87891 41.8086 2.48047C47.5508 -0.917969 53.8203 -2.61719 60.6172 -2.61719C67.4141 -2.61719 73.6836 -0.917969 79.4258 2.48047C85.168 5.87891 89.7383 10.4492 93.1367 16.1914C96.5352 21.9336 98.2344 28.2031 98.2344 35V50.1172H105.617ZM60.6172 12.5C54.2891 12.5 48.957 14.668 44.6211 19.0039C40.2852 23.3398 38.1172 28.6719 38.1172 35V50.1172H83.1172V35C83.1172 28.6719 80.9492 23.3398 76.6133 19.0039C72.2773 14.668 66.9453 12.5 60.6172 12.5Z" fill="#151617"/>
</svg>
