<svg width="48" height="48" viewBox="0 0 48 48" fill="none" xmlns="http://www.w3.org/2000/svg">
<g clip-path="url(#clip0_307_5047)">
<path d="M30.9439 15.9338C32.4826 16.5846 33.9056 17.4395 35.1962 18.4819V11.1134C35.1962 4.98587 30.2104 0 24.0828 0H23.9118C17.7898 0 12.804 4.98587 12.804 11.1134V18.4819C14.0945 17.4396 15.5175 16.5847 17.0563 15.9338C17.4699 15.7573 17.8946 15.5974 18.3193 15.454V11.1134C18.3193 8.02482 20.8288 5.51534 23.9174 5.51534H24.0883C27.1769 5.51534 29.6864 8.02482 29.6864 11.1134V15.4595C30.1055 15.5974 30.5303 15.7573 30.9439 15.9338Z" fill="#FFCD1D"/>
<path d="M8.36963 32.3695C8.36963 41.001 15.3686 47.9999 24.0001 47.9999C32.6316 47.9999 39.6306 41.0065 39.6306 32.3695C39.6306 28.1282 37.9374 24.2785 35.1963 21.4601C33.652 19.8773 31.7768 18.6197 29.681 17.798C27.9216 17.1086 26.0022 16.7335 24.0002 16.7335C21.9981 16.7335 20.0787 17.1086 18.3194 17.798C16.2235 18.6143 14.3483 19.8717 12.804 21.4601C10.0573 24.2785 8.36963 28.1282 8.36963 32.3695ZM19.9738 29.2147C20.029 27.0803 21.7663 25.343 23.9008 25.2933C26.1675 25.2381 28.0262 27.0638 28.0262 29.3195C28.0262 29.5567 28.0042 29.7883 27.9656 30.0089C27.7669 31.1506 27.0886 32.1323 26.1399 32.728C25.7483 32.9762 25.5498 33.4394 25.6491 33.8862L26.846 39.5615C26.9178 39.9035 26.6585 40.2289 26.3055 40.2289H21.6947C21.3417 40.2289 21.0824 39.909 21.1542 39.5615L22.351 33.8862C22.4447 33.434 22.2517 32.9706 21.8602 32.7224C20.9115 32.1268 20.2331 31.1506 20.0345 30.0034C19.9904 29.7497 19.9684 29.485 19.9738 29.2147Z" fill="#FFCD1D"/>
</g>
<defs>
<clipPath id="clip0_307_5047">
<rect width="48" height="48" fill="white"/>
</clipPath>
</defs>
</svg>
