<svg width="48" height="48" viewBox="0 0 48 48" fill="none" xmlns="http://www.w3.org/2000/svg">
<g clip-path="url(#clip0_325_168)">
<path d="M33.2846 31.2426V25.1461C33.2846 11.5444 27.5309 3.32862 25.1244 0.488104C24.865 0.179184 24.4834 0.00309937 24.0818 1.01656e-05C23.6787 -0.00153443 23.2972 0.173005 23.0331 0.478836C20.5864 3.31318 14.7169 11.532 14.7169 25.1461V31.2442L13.5909 32.0026C11.4207 33.4669 10.1187 35.9151 10.1187 38.5347V45.8113C10.1187 46.2423 10.3565 46.6408 10.7365 46.8462C11.118 47.0501 11.5798 47.0269 11.9382 46.786L15.5958 44.3501C16.623 43.6674 17.8278 43.3013 19.0619 43.3013H21.751V46.8277C21.751 47.4764 22.2762 48.0016 22.9234 48.0016H25.0766C25.7237 48.0016 26.2489 47.4764 26.2489 46.8277V43.3013H28.9365C30.1707 43.3013 31.377 43.6643 32.4057 44.3517L36.0602 46.786C36.4186 47.0269 36.8804 47.0501 37.2619 46.8462C37.6419 46.6408 37.8798 46.2423 37.8798 45.8113V38.5347C37.8798 35.9181 36.5761 33.47 34.4075 32.0026L33.2846 31.2426ZM24.0015 21.6908C21.768 21.6908 19.9547 19.879 19.9547 17.6455C19.9547 15.4105 21.768 13.6002 24.0015 13.6002C26.2335 13.6002 28.0468 15.4105 28.0468 17.6455C28.0468 19.879 26.2335 21.6908 24.0015 21.6908Z" fill="#FFCD1D"/>
</g>
<defs>
<clipPath id="clip0_325_168">
<rect width="48" height="48" fill="white"/>
</clipPath>
</defs>
</svg>
