<svg width="15" height="16" viewBox="0 0 15 16" fill="none" xmlns="http://www.w3.org/2000/svg">
<path id="Vector" d="M1.71875 12.7188L2.65625 13.6562L3.84375 12.4688L2.90625 11.5312L1.71875 12.7188ZM7.34375 4C6.61458 4 5.94271 4.17708 5.32812 4.53125C4.71354 4.88542 4.22917 5.36979 3.875 5.98438C3.52083 6.59896 3.34375 7.27083 3.34375 8C3.34375 8.72917 3.52083 9.40104 3.875 10.0156C4.22917 10.6302 4.71354 11.1146 5.32812 11.4688C5.94271 11.8229 6.61458 12 7.34375 12C8.07292 12 8.74479 11.8229 9.35938 11.4688C9.97396 11.1146 10.4583 10.6302 10.8125 10.0156C11.1667 9.40104 11.3438 8.72917 11.3438 8C11.3438 7.27083 11.1667 6.59896 10.8125 5.98438C10.4583 5.36979 9.97396 4.88542 9.35938 4.53125C8.74479 4.17708 8.07292 4 7.34375 4ZM12.6875 8.65625H14.6875V7.34375H12.6875V8.65625ZM10.8438 12.4688L12.0312 13.6562L12.9688 12.7188L11.7812 11.5312L10.8438 12.4688ZM12.9688 3.34375L12.0312 2.40625L10.8438 3.59375L11.7812 4.53125L12.9688 3.34375ZM8 0.65625H6.6875V2.65625H8V0.65625ZM3.84375 3.59375L2.65625 2.40625L1.71875 3.34375L2.90625 4.53125L3.84375 3.59375ZM0 8.65625H2V7.34375H0V8.65625ZM8 13.3438H6.6875V15.3438H8V13.3438Z" fill="#B9BABB"/>
</svg>
