<svg width="29" height="23" viewBox="0 0 29 23" fill="none" xmlns="http://www.w3.org/2000/svg">
<path id="Vector" d="M28.7251 3C27.7251 3.45833 26.6418 3.77083 25.4751 3.9375C26.6834 3.1875 27.5168 2.125 27.9751 0.75C26.8501 1.41667 25.6418 1.875 24.3501 2.125C23.2251 0.916666 21.8084 0.3125 20.1001 0.3125C18.5584 0.3125 17.2251 0.875 16.1001 2C14.9751 3.125 14.4126 4.47917 14.4126 6.0625C14.4126 6.47917 14.4751 6.91667 14.6001 7.375C12.2668 7.25 10.0688 6.65625 8.00635 5.59375C5.94385 4.53125 4.20426 3.125 2.7876 1.375C2.2876 2.25 2.0376 3.19792 2.0376 4.21875C2.0376 5.23958 2.26676 6.16667 2.7251 7C3.18343 7.83333 3.7876 8.5 4.5376 9C3.6626 9 2.80843 8.77083 1.9751 8.3125V8.375C1.9751 9.75 2.4126 10.9583 3.2876 12C4.1626 13.0417 5.24593 13.7083 6.5376 14C6.07926 14.125 5.57926 14.1875 5.0376 14.1875C4.70426 14.1875 4.3501 14.1458 3.9751 14.0625C4.3501 15.2292 5.02718 16.1771 6.00635 16.9062C6.98551 17.6354 8.07926 18.0208 9.2876 18.0625C7.24593 19.6875 4.89176 20.5 2.2251 20.5C1.76676 20.5 1.30843 20.4792 0.850098 20.4375C3.51676 22.1458 6.43343 23 9.6001 23C12.9334 23 15.8918 22.1458 18.4751 20.4375C20.8501 18.9375 22.7043 16.8958 24.0376 14.3125C25.2876 11.8542 25.9126 9.33333 25.9126 6.75L25.8501 6C26.9751 5.20833 27.9334 4.20833 28.7251 3Z" fill="#B9BABB"/>
</svg>
