<svg width="23" height="18" viewBox="0 0 23 18" fill="none" xmlns="http://www.w3.org/2000/svg">
<path id="Vector" d="M19.5 11.4844V12.9844H18V11.4844H19.5ZM17.5312 6.51562H16.0312V6C16.0312 5.15625 16.3203 4.44531 16.8984 3.86719C17.4766 3.28906 18.1797 3 19.0078 3C19.8359 3 20.5469 3.28906 21.1406 3.86719C21.7344 4.44531 22.0312 5.15625 22.0312 6C22.0312 6.46875 21.9141 6.92188 21.6797 7.35938C21.4453 7.79688 21.125 8.14062 20.7188 8.39062L20.4375 8.57812C19.8125 9.01562 19.5 9.59375 19.5 10.3125V10.5H18V10.3125C18 9.71875 18.1406 9.15625 18.4219 8.625C18.7031 8.09375 19.0938 7.67188 19.5938 7.35938L19.875 7.17188C20.3125 6.89062 20.5312 6.5 20.5312 6C20.5312 5.59375 20.3828 5.24219 20.0859 4.94531C19.7891 4.64844 19.4297 4.5 19.0078 4.5C18.5859 4.5 18.2344 4.64844 17.9531 4.94531C17.6719 5.24219 17.5312 5.59375 17.5312 6V6.51562ZM8.01562 9.98438C9.01562 9.98438 10.1094 10.1406 11.2969 10.4531C12.6406 10.7969 13.7188 11.2344 14.5312 11.7656C15.5312 12.4219 16.0312 13.1719 16.0312 14.0156V17.0156H0V14.0156C0 13.1719 0.5 12.4219 1.5 11.7656C2.3125 11.2344 3.39062 10.7969 4.73438 10.4531C5.92188 10.1406 7.01562 9.98438 8.01562 9.98438ZM8.01562 0.984375C9.10938 0.984375 10.0469 1.375 10.8281 2.15625C11.6094 2.9375 12 3.88281 12 4.99219C12 6.10156 11.6094 7.04688 10.8281 7.82812C10.0469 8.60938 9.10938 9 8.01562 9C6.92188 9 5.98438 8.60938 5.20312 7.82812C4.42188 7.04688 4.03125 6.10156 4.03125 4.99219C4.03125 3.88281 4.42188 2.9375 5.20312 2.15625C5.98438 1.375 6.92188 0.984375 8.01562 0.984375ZM8.01562 11.9062C7.07812 11.9062 6.10938 12.0312 5.10938 12.2812C4.23438 12.5312 3.48438 12.8281 2.85938 13.1719C2.23438 13.5156 1.92188 13.7969 1.92188 14.0156V15.0938H14.1094V14.0156C14.1094 13.7969 13.7969 13.5156 13.1719 13.1719C12.5469 12.8281 11.7969 12.5312 10.9219 12.2812C9.92188 12.0312 8.95312 11.9062 8.01562 11.9062ZM8.01562 2.90625C7.42188 2.90625 6.92188 3.10938 6.51562 3.51562C6.10938 3.92188 5.90625 4.41406 5.90625 4.99219C5.90625 5.57031 6.10938 6.0625 6.51562 6.46875C6.92188 6.875 7.42188 7.07812 8.01562 7.07812C8.60938 7.07812 9.10938 6.875 9.51562 6.46875C9.92188 6.0625 10.125 5.57031 10.125 4.99219C10.125 4.41406 9.92188 3.92188 9.51562 3.51562C9.10938 3.10938 8.60938 2.90625 8.01562 2.90625Z" fill="#B9BABB"/>
</svg>
